<svg version="1.2" xmlns="http://www.w3.org/2000/svg" viewBox="0 0 1144 618" width="1144" height="618"><style>.a{opacity:.1;fill:#6c63ff}.b{opacity:.2;fill:#6c63ff}.c{fill:#6c63ff}.d{opacity:.7;fill:#6c63ff}.e{opacity:.4;fill:#6c63ff}.f{fill:#767d9f}.g{fill:#efb7b9}.h{fill:#4c4981}.i{fill:#504f60}.j{fill:#9c9ca1}.k{opacity:.1;fill:#633737}.l{opacity:.1}.m{fill:#fff}.n{opacity:.1;stroke:#4c4981}.o{fill:#444053}</style><path class="a" d="m1144 396.2q0 6.3-0.4 12.6-0.5 6.2-1.3 12.5-0.9 6.2-2.2 12.3-1.2 6.2-2.9 12.2-1.7 5.9-3.7 11.6-2.1 5.7-4.5 11.2-2.4 5.6-5.2 11-2.8 5.3-5.9 10.5c0 50.1-33.8 93.4-82.9 114q-7.7 3.2-15.7 5.6-7.9 2.4-16.1 4-8.1 1.6-16.4 2.4-8.3 0.8-16.6 0.8h-753c-40.3 0-77.6-10.9-108.2-29.4q-3.3-1.9-6.4-4-3.2-2.1-6.4-4.4-3.1-2.2-6.1-4.6-3-2.4-5.9-4.8c-34-29.3-55.1-69.6-55.1-114.2-4.7-7.3-8.9-15-12.6-22.9-3.6-7.9-6.7-16-9.1-24.4-2.5-8.3-4.3-16.8-5.6-25.5-1.2-8.6-1.8-17.3-1.8-26 0-73.3 43.4-136.4 105.5-164.3q3.1-1.3 6.3-2.6 3.1-1.3 6.3-2.4 3.2-1.1 6.5-2.2 3.2-1 6.5-1.9 4.6-1.2 9.3-2.2 3.2-0.7 6.3-1.3 3.2-0.5 6.4-0.9 3.2-0.5 6.4-0.8 3.2-0.3 6.4-0.5 4.7-0.3 9.4-0.4h1.7q5.2 0 10.3 0.4l1.1-1.9q2.1-3.5 4.2-6.8 3.9-6.2 8.2-12.2 4.5-6.2 9.4-12.3l0.8-1q2.8-3.5 5.6-6.8 9-10.5 19-20.4c72.1-70.7 185.1-116.2 312.1-116.2 98.8 0 189.2 27.6 258.4 73.1q9.7-5.5 20.2-9.8 10.4-4.2 21.3-7.1 10.8-2.8 22-4.3 11.2-1.4 22.4-1.4c97.7 0 177 80.4 177 179.5q0 2.4-0.1 4.7 0 2.4-0.2 4.7-0.1 2.4-0.3 4.7-0.2 2.4-0.4 4.7c11.7 8.3 22.4 18 31.9 28.9 9.4 10.8 17.5 22.8 24.1 35.5 6.6 12.8 11.6 26.4 15 40.3 3.4 14 5 28.3 5 42.7z"/><path class="b" d="m235.7 116.2v20.3h-19q8.9-10.5 19-20.3z"/><path class="b" d="m245 111h25.5v25.5h-25.5z"/><path class="b" d="m279.9 111h25.5v25.5h-25.5z"/><path class="b" d="m314.8 111h25.5v25.5h-25.6z"/><path class="b" d="m349.6 111h25.5v25.5h-25.5z"/><path class="b" d="m384.5 111h25.5v25.5h-25.5z"/><path class="c" d="m419.4 111h25.5v25.5h-25.5z"/><path class="b" d="m454.2 111h25.5v25.5h-25.5z"/><path class="b" d="m489.1 111h25.5v25.5h-25.5z"/><path class="b" d="m523.9 111h25.6v25.5h-25.6z"/><path class="c" d="m558.8 111h25.5v25.5h-25.5z"/><path class="b" d="m593.7 111h25.5v25.5h-25.5z"/><path class="b" d="m628.5 111h25.5v25.5h-25.5z"/><path class="b" d="m663.4 111h25.5v25.5h-25.5z"/><path class="b" d="m698.3 111h25.5v25.5h-25.5z"/><path class="b" d="m733.1 111h25.5v25.5h-25.5z"/><path class="b" d="m768 111h25.5v25.5h-25.5z"/><path class="c" d="m802.9 111h25.5v25.5h-25.5z"/><path class="c" d="m837.7 111h25.5v25.5h-25.5z"/><path class="b" d="m872.6 111h25.5v25.5h-25.5z"/><path class="b" d="m907.5 111h25.5v25.5h-25.5z"/><path class="c" d="m942.3 111h25.6v25.5h-25.6z"/><path class="c" d="m977.2 111h25.5v25.5h-25.5z"/><path class="c" d="m200.8 156.7v12.1h-8.2q3.9-6.1 8.2-12.1z"/><path class="b" d="m210.2 143.3h25.5v25.5h-25.5z"/><path class="c" d="m245 143.3h25.5v25.5h-25.5z"/><path class="b" d="m279.9 143.3h25.5v25.5h-25.5z"/><path class="d" d="m314.8 143.3h25.5v25.5h-25.6z"/><path class="b" d="m349.6 143.3h25.5v25.5h-25.5z"/><path class="e" d="m384.5 143.3h25.5v25.5h-25.5z"/><path class="c" d="m419.4 143.3h25.5v25.5h-25.5z"/><path class="e" d="m454.2 143.3h25.5v25.5h-25.5z"/><path class="b" d="m489.1 143.3h25.5v25.5h-25.5z"/><path class="e" d="m523.9 143.3h25.6v25.5h-25.6z"/><path class="c" d="m558.8 143.3h25.5v25.5h-25.5z"/><path class="e" d="m593.7 143.3h25.5v25.5h-25.5z"/><path class="e" d="m628.5 143.3h25.5v25.5h-25.5z"/><path class="b" d="m663.4 143.3h25.5v25.5h-25.5z"/><path class="e" d="m698.3 143.3h25.5v25.5h-25.5z"/><path class="e" d="m733.1 143.3h25.5v25.5h-25.5z"/><path class="b" d="m768 143.3h25.5v25.5h-25.5z"/><path class="b" d="m802.9 143.3h25.5v25.5h-25.5z"/><path class="e" d="m837.7 143.3h25.5v25.5h-25.5z"/><path class="b" d="m872.6 143.3h25.5v25.5h-25.5z"/><path class="c" d="m907.5 143.3h25.5v25.5h-25.5z"/><path class="c" d="m942.3 143.3h25.6v25.5h-25.6z"/><path class="c" d="m977.2 143.3h25.5v25.5h-25.5z"/><path class="b" d="m131.1 183.3v17.9h-25.5v-8.7q3-1.4 6.2-2.7 3.1-1.3 6.3-2.4 3.2-1.1 6.5-2.2 3.2-1 6.5-1.9z"/><path class="b" d="m165.9 177.6v23.6h-25.5v-20.1z"/><path class="c" d="m175.3 175.7h25.5v25.5h-25.5z"/><path class="d" d="m210.2 175.7h25.5v25.5h-25.5z"/><path class="c" d="m245 175.7h25.5v25.5h-25.5z"/><path class="d" d="m279.9 175.7h25.5v25.5h-25.5z"/><path class="d" d="m314.8 175.7h25.5v25.5h-25.6z"/><path class="b" d="m349.6 175.7h25.5v25.5h-25.5z"/><path class="e" d="m384.5 175.7h25.5v25.5h-25.5z"/><path class="e" d="m419.4 175.7h25.5v25.5h-25.5z"/><path class="c" d="m454.2 175.7h25.5v25.5h-25.5z"/><path class="b" d="m489.1 175.7h25.5v25.5h-25.5z"/><path class="e" d="m523.9 175.7h25.6v25.5h-25.6z"/><path class="c" d="m558.8 175.7h25.5v25.5h-25.5z"/><path class="b" d="m593.7 175.7h25.5v25.5h-25.5z"/><path class="e" d="m628.5 175.7h25.5v25.5h-25.5z"/><path class="b" d="m663.4 175.7h25.5v25.5h-25.5z"/><path class="c" d="m698.3 175.7h25.5v25.5h-25.5z"/><path class="b" d="m733.1 175.7h25.5v25.5h-25.5z"/><path class="d" d="m768 175.7h25.5v25.5h-25.5z"/><path class="d" d="m802.9 175.7h25.5v25.5h-25.5z"/><path class="e" d="m837.7 175.7h25.5v25.5h-25.5z"/><path class="b" d="m872.6 175.7h25.5v25.5h-25.5z"/><path class="c" d="m907.5 175.7h25.5v25.5h-25.5z"/><path class="c" d="m942.3 175.7h25.6v25.5h-25.6z"/><path class="c" d="m977.2 175.7h25.5v25.5h-25.5z"/><path class="b" d="m105.5 208h25.6v25.5h-25.6z"/><path class="b" d="m140.4 208h25.5v25.5h-25.5z"/><path class="b" d="m175.3 208h25.5v25.5h-25.5z"/><path class="b" d="m210.2 208h25.5v25.5h-25.5z"/><path class="c" d="m245 208h25.5v25.5h-25.5z"/><path class="d" d="m279.9 208h25.5v25.5h-25.5z"/><path class="d" d="m314.8 208h25.5v25.5h-25.6z"/><path class="b" d="m349.6 208h25.5v25.5h-25.5z"/><path class="b" d="m384.5 208h25.5v25.5h-25.5z"/><path class="e" d="m419.4 208h25.5v25.5h-25.5z"/><path class="e" d="m454.2 208h25.5v25.5h-25.5z"/><path class="c" d="m489.1 208h25.5v25.5h-25.5z"/><path class="b" d="m523.9 208h25.6v25.5h-25.6z"/><path class="e" d="m558.8 208h25.5v25.5h-25.5z"/><path class="e" d="m593.7 208h25.5v25.5h-25.5z"/><path class="e" d="m628.5 208h25.5v25.5h-25.5z"/><path class="e" d="m663.4 208h25.5v25.5h-25.5z"/><path class="b" d="m698.3 208h25.5v25.5h-25.5z"/><path class="b" d="m733.1 208h25.5v25.5h-25.5z"/><path class="b" d="m768 208h25.5v25.5h-25.5z"/><path class="b" d="m802.9 208h25.5v25.5h-25.5z"/><path class="d" d="m837.7 208h25.5v25.5h-25.5z"/><path class="d" d="m872.6 208h25.5v25.5h-25.5z"/><path class="e" d="m907.5 208h25.5v25.5h-25.5z"/><path class="b" d="m942.3 208h25.6v25.5h-25.6z"/><path class="c" d="m977.2 208h25.5v25.5h-25.5z"/><path class="b" d="m105.5 240.3h25.6v25.5h-25.6z"/><path class="b" d="m140.4 240.3h25.5v25.5h-25.5z"/><path class="e" d="m175.3 240.3h25.5v25.5h-25.5z"/><path class="b" d="m210.2 240.3h25.5v25.5h-25.5z"/><path class="b" d="m245 240.3h25.5v25.5h-25.5z"/><path class="d" d="m279.9 240.3h25.5v25.5h-25.5z"/><path class="d" d="m314.8 240.3h25.5v25.5h-25.6z"/><path class="b" d="m349.6 240.3h25.5v25.5h-25.5z"/><path class="b" d="m384.5 240.3h25.5v25.5h-25.5z"/><path class="e" d="m419.4 240.3h25.5v25.5h-25.5z"/><path class="c" d="m454.2 240.3h25.5v25.5h-25.5z"/><path class="b" d="m489.1 240.3h25.5v25.5h-25.5z"/><path class="c" d="m523.9 240.3h25.6v25.5h-25.6z"/><path class="c" d="m558.8 240.3h25.5v25.5h-25.5z"/><path class="c" d="m593.7 240.3h25.5v25.5h-25.5z"/><path class="b" d="m628.5 240.3h25.5v25.5h-25.5z"/><path class="c" d="m663.4 240.3h25.5v25.5h-25.5z"/><path class="b" d="m698.3 240.3h25.5v25.5h-25.5z"/><path class="b" d="m733.1 240.3h25.5v25.5h-25.5z"/><path class="b" d="m768 240.3h25.5v25.5h-25.5z"/><path class="b" d="m802.9 240.3h25.5v25.5h-25.5z"/><path class="b" d="m837.7 240.3h25.5v25.5h-25.5z"/><path class="d" d="m872.6 240.3h25.5v25.5h-25.5z"/><path class="b" d="m907.5 240.3h25.5v25.5h-25.5z"/><path class="b" d="m942.3 240.3h25.6v25.5h-25.6z"/><path class="c" d="m977.2 240.3h25.5v25.5h-25.5z"/><path class="b" d="m105.5 272.6h25.6v25.5h-25.6z"/><path class="b" d="m140.4 272.6h25.5v25.5h-25.5z"/><path class="b" d="m175.3 272.6h25.5v25.5h-25.5z"/><path class="e" d="m210.2 272.6h25.5v25.5h-25.5z"/><path class="b" d="m245 272.6h25.5v25.5h-25.5z"/><path class="b" d="m279.9 272.6h25.5v25.5h-25.5z"/><path class="d" d="m314.8 272.6h25.5v25.5h-25.6z"/><path class="b" d="m349.6 272.6h25.5v25.5h-25.5z"/><path class="b" d="m384.5 272.6h25.5v25.5h-25.5z"/><path class="b" d="m419.4 272.6h25.5v25.5h-25.5z"/><path class="c" d="m454.2 272.6h25.5v25.5h-25.5z"/><path class="b" d="m489.1 272.6h25.5v25.5h-25.5z"/><path class="c" d="m523.9 272.6h25.6v25.5h-25.6z"/><path class="c" d="m558.8 272.6h25.5v25.5h-25.5z"/><path class="b" d="m593.7 272.6h25.5v25.5h-25.5z"/><path class="b" d="m628.5 272.6h25.5v25.5h-25.5z"/><path class="b" d="m663.4 272.6h25.5v25.5h-25.5z"/><path class="b" d="m698.3 272.6h25.5v25.5h-25.5z"/><path class="b" d="m733.1 272.6h25.5v25.5h-25.5z"/><path class="b" d="m768 272.6h25.5v25.5h-25.5z"/><path class="b" d="m802.9 272.6h25.5v25.5h-25.5z"/><path class="b" d="m837.7 272.6h25.5v25.5h-25.5z"/><path class="b" d="m872.6 272.6h25.5v25.5h-25.5z"/><path class="b" d="m907.5 272.6h25.5v25.5h-25.5z"/><path class="e" d="m942.3 272.6h25.6v25.5h-25.6z"/><path class="c" d="m977.2 272.6h25.5v25.5h-25.5z"/><path class="d" d="m105.5 304.9h25.6v25.5h-25.6z"/><path class="d" d="m140.4 304.9h25.5v25.5h-25.5z"/><path class="d" d="m175.3 304.9h25.5v25.5h-25.5z"/><path class="d" d="m210.2 304.9h25.5v25.5h-25.5z"/><path class="d" d="m245 304.9h25.5v25.5h-25.5z"/><path class="b" d="m279.9 304.9h25.5v25.5h-25.5z"/><path class="b" d="m314.8 304.9h25.5v25.5h-25.6z"/><path class="b" d="m349.6 304.9h25.5v25.5h-25.5z"/><path class="b" d="m384.5 304.9h25.5v25.5h-25.5z"/><path class="b" d="m419.4 304.9h25.5v25.5h-25.5z"/><path class="b" d="m454.2 304.9h25.5v25.5h-25.5z"/><path class="c" d="m489.1 304.9h25.5v25.5h-25.5z"/><path class="b" d="m523.9 304.9h25.6v25.5h-25.6z"/><path class="b" d="m558.8 304.9h25.5v25.5h-25.5z"/><path class="b" d="m593.7 304.9h25.5v25.5h-25.5z"/><path class="c" d="m628.5 304.9h25.5v25.5h-25.5z"/><path class="b" d="m663.4 304.9h25.5v25.5h-25.5z"/><path class="b" d="m698.3 304.9h25.5v25.5h-25.5z"/><path class="b" d="m733.1 304.9h25.5v25.5h-25.5z"/><path class="b" d="m768 304.9h25.5v25.5h-25.5z"/><path class="b" d="m802.9 304.9h25.5v25.5h-25.5z"/><path class="b" d="m837.7 304.9h25.5v25.5h-25.5z"/><path class="b" d="m872.6 304.9h25.5v25.5h-25.5z"/><path class="b" d="m907.5 304.9h25.5v25.5h-25.5z"/><path class="b" d="m942.3 304.9h25.6v25.5h-25.6z"/><path class="c" d="m977.2 304.9h25.5v25.5h-25.5z"/><path class="f" d="m734.5 398.8c-19.3 0-34.9-15.6-34.9-34.9 0-19.3 15.6-34.9 34.9-34.9 19.3 0 34.9 15.6 34.9 34.9 0 19.3-15.6 34.9-34.9 34.9z"/><path class="g" d="m749.5 313.7q7.1-4.3 14.3-8.5 1.4-0.9 3-1.7 1.5-0.9 3.1-1.6 1.5-0.8 3.1-1.5 1.6-0.7 3.3-1.3c7-2.5 14.7-2.7 21.2-6.3-2.2 5.7 0.7 12.1 4.6 16.8 2 2.3 4.3 4.4 6.9 6.2 2.5 1.8 5.2 3.3 8.1 4.4 2.8 1.2 5.8 2 8.9 2.5 3 0.4 6.2 0.5 9.2 0.2-9.6 22.6-19.8 45.3-35.4 64.2-3.4 4.2-7.2 8.2-11.7 11q-1.6 1-3.3 1.8-1.7 0.9-3.4 1.6-1.7 0.7-3.5 1.3-1.8 0.6-3.6 1.1c-10.7 3.1-22.2 5.2-32.9 2.3-3.8-1-7.7-3-9.1-6.6-1.3-3.6 0.3-7.7 2.6-10.8 2.2-3.2 5-6 6.4-9.6 1.7-4.4 1-9.2 0.3-13.8q-3.7-23.1-8.9-45.9c6.3 0.4 11.4-2.5 16.8-5.8z"/><path class="f" d="m822.2 314.6c7.6-3.7 22.6 2.8 29 6.5 10 5.7 17.2 15.6 21.6 26.3 4.4 10.7 6.3 22.3 7.8 33.7 5.9 46.7 5.8 93.8 5.6 140.8-0.1 19.4-0.2 38.9-2.7 58.1-1.1 7.6-2.5 15.3-6.2 22.1q-0.5 1-1.1 1.9-0.6 0.9-1.3 1.7-0.7 0.9-1.5 1.6-0.8 0.8-1.7 1.4c-3.9 2.6-8.8 2.7-13.5 2.7-26.5 0.1-53 0.2-79.4-2.6-41.2-4.2-82.3-15.2-123.4-10.2 4.4-25.6 8.8-51.5 8.7-77.6 0-21.2-3.1-42.3-3.5-63.5-0.5-21.2 1.9-43 11.9-61.7 5.2-9.8 12.3-18.3 19.7-26.6 4.8-5.4 10.5-11 17.7-11.6 6.6-0.6 12.7 3.1 17.6 7.5 4.9 4.4 9.1 9.6 14.7 13 11.4 7 26.7 5.1 38-2 11.4-7.1 19.3-18.5 25.4-30.4 4.1-8 8.1-26.9 16.6-31.1z"/><path class="h" d="m808.7 478.4c-1.6-29-7.9-59.9 5.5-85.7 3.3-6.3-8.5-14.2-4.8-20.3q1.6-2.8 3.1-5.7 1.5-2.9 2.7-5.9 1.3-3 2.4-6.1 1-3.1 1.8-6.2c0.8-2.9 1.4-6 0.7-8.9-1.4-5.3-6.6-8.4-11-11.6-4.9-3.6-7.4-14.4-9-20.3-1.6-5.9 12.5 1.2 18.2-0.9 7.9-2.9 18-1.1 25.9 1.9 4.4 1.6 9.1 1.7 13.8 1.8 9.1 0.3 18.3 0.5 27.3-0.6 4.1-0.5 8.1-1.3 12.2-1.1 10.4 0.6 19.5 7.7 25.6 16.2 6.2 8.4 10.1 18.2 15.2 27.3 4.2 7.6 9.2 14.8 12.8 22.7 3.2 7 5.2 14.5 7.2 22l5.1 19.2q0.3 1 0.6 2.1 0.2 1 0.4 2.1 0.2 1.1 0.2 2.2 0.1 1 0.1 2.1c-0.3 3.1-1.7 5.9-3 8.7q-2 3.8-4.1 7.4-2.2 3.7-4.5 7.3-2.4 3.6-4.9 7-2.5 3.5-5.2 6.8c-10.8 13.2-23.9 25.1-30.3 41-2.5 6.1-3.9 12.7-5.2 19.2q-1.9 9.8-3.5 19.7-1.7 9.9-3 19.8-1.4 9.9-2.5 19.8-1.1 9.9-1.9 19.9-4.3-2-8.8-3.8-4.5-1.8-9.1-3.3-4.6-1.6-9.2-2.8-4.7-1.3-9.4-2.3-2.3-0.5-4.7-1-2.4-0.4-4.7-0.8-2.4-0.4-4.8-0.7-2.4-0.3-4.8-0.5c-5.6-0.6-12.8 0.5-18.1-1-8.9-2.6-9.9-17.6-11.2-25.5-2.2-12.5-2.6-25.3-2.7-38-0.1-14.4 0.4-28.8-0.4-43.2z"/><path class="h" d="m613.2 424.2c4.2 24 8.9 48.1 18 70.6q-0.3 0.3-0.7 0.6-1.2 1.1-2.5 2c-2 1.5-4.3 2.7-6 4.6q-0.2 0.2-0.4 0.5-0.3 0.3-0.5 0.6-0.1 0.3-0.3 0.7-0.2 0.3-0.3 0.6-0.2 0.6-0.3 1.1-0.2 0.6-0.2 1.2 0 0.5 0.2 1.1 0.1 0.6 0.3 1.1c-4.8 2.1-10.3 1.5-15.7 1.3-4.6-0.2-9 0-12.7 2.5-5.2 3.5-6.7 10.3-7.5 16.5q-0.5 3.4-0.8 6.8-0.4 3.1-0.6 6.3-0.1 2.6-0.2 5.2-0.1 2.7-0.1 5.3-0.1 2.6 0 5.3 0 2.6 0.1 5.2 0.1 1.9 0.3 3.8c-16.4-0.3-31.3-8.9-45.4-17.2-3.2-1.8-6.5-3.8-8.6-7q-0.7-1.1-1.2-2.3-0.5-1.3-0.8-2.6-0.3-1.3-0.4-2.7-0.1-1.3 0.1-2.6c0-0.6 0.1-1 0.2-1.6q0.1-1.1 0.4-2.2 0.2-1.1 0.5-2.2 0.3-1 0.6-2.1 0.3-1.1 0.7-2.1 1.7-4.5 3.7-8.8 2.1-4.3 4.5-8.4 2.4-4.1 5.2-8 2.7-3.9 5.8-7.5c3.6-4.2 7.6-8.3 9.3-13.5 0.7-2.3 1-4.7 1.8-7 3.3-9.9 15.3-14.6 19.4-24.1 1-2.3 1.4-4.8 2.7-7q0.4-0.7 0.9-1.4 0.4-0.6 1-1.2 0.5-0.6 1.1-1.2 0.6-0.5 1.2-1 1.1-0.9 2.2-1.8 10.6-8.2 20.4-17.4 1.8-1.7 3.6-3.5-0.1 1.7-0.1 3.4 0.1 1.7 0.2 3.4 0.1 1.7 0.4 3.4 0.2 1.6 0.5 3.3z"/><path class="h" d="m714 353.2c-1.4 1.5-3 3-4.5 4.4l-0.4 0.4-1.7 1.5q-1.1 0.9-2.1 1.9-1 1.1-2 2.2-0.9 1.1-1.8 2.2-0.8 1.2-1.6 2.5l-0.2 0.2c-5.1 9.2-3.2 20.4-1.8 30.8q0.7 4.8 1.2 9.7 0.4 4.8 0.7 9.7 0.3 4.9 0.5 9.8 0.1 4.9 0 9.8c-0.3 18-2.4 35.8-2.4 53.8q0 6.1 0.3 12.3c0.2 6.6 0.7 13.2 1.3 19.8 0.7 7.3 1.5 14.5 2.2 21.8q0.9 8.4 1.6 16.8 0.3 4.3 0.6 8.7 0.3 5.1 0.5 10.2 0.1 3.2 0.1 6.5 0 1.8 0 3.6 0 3.6-0.2 7-0.2 4.5-0.6 9c-0.3 3.3-0.8 6.9-3.1 9.2q-0.3 0.2-0.5 0.4l-3.2-0.4q-8.4-1-16.8-1.6-8.4-0.6-16.8-0.7-8.5-0.2-16.9 0.1-8.4 0.3-16.8 1 0.7-5.1 1.4-10.2 0.3-2.4 0.5-4.8 0.4-2.7 0.7-5.5 0.3-3 0.6-6 0.8-7.7 1.4-15.5 0.9-11.3 1.3-22.6 0.2-5.4 0.3-10.8 0.2-6.7 0.2-13.5 0-6.5-0.1-13.1 0-2.1-0.2-4.3 0-0.5-0.1-0.9 0-0.5-0.1-1-0.1-0.5-0.1-1-0.1-0.4-0.2-0.9-0.3-1.1-0.6-2.2-0.4-1.1-0.7-2.1-0.4-1.1-0.8-2.1-0.5-1.1-0.9-2.1c-0.2-0.5-0.4-1-0.7-1.5q-0.1-0.5-0.3-0.9c5.8-5.1 9.9-12 13.8-18.7 6.4-10.9 12.9-22.3 14-34.9 1.1-12.5-5.2-26.7-17.2-30.5-3.3-1-6.7-1.3-10.1-1.9-3.2-0.5-9.8-1.8-13.5-4.1q-3 3.1-6 6.1 0.1-1.2 0.2-2.3 0.2-1.1 0.4-2.2 0.3-1.1 0.7-2.2 0.4-1 0.9-2.1l1.4 0.1q0-0.1-0.1-0.2 0-0.1 0-0.3 0-0.1-0.1-0.2 0-0.2 0-0.3 0-1.6 2.4-3.6c4.7-4 12.1-4.9 15.1-10.3 1.2-2.3 1.4-4.9 2.4-7.3 2.9-6.7 11.1-9.2 16.1-14.6 4.9-5.4 6.2-13 10.2-19q1.1-1.6 2.4-3.1 1.4-1.4 2.9-2.7 1.5-1.3 3.2-2.3 1.7-1.1 3.5-1.9 0.6-0.3 1.2-0.5c8.3-3.6 18.2-4.4 26.8-4.4 3.3 0 12 0.1 16.2 1.8q0.3 0.1 0.5 0.2 0.3 0.1 0.5 0.3 0.2 0.1 0.4 0.3 0.3 0.2 0.5 0.3c4.5 5-2.6 15.4-5.9 18.9z"/><path class="h" d="m614.7 401.4q5.8-1.8 11.8-2.4 6.1-0.5 12.1 0.1 6 0.6 11.8 2.4 5.7 1.8 11.1 4.7c7.2 4 13.6 9.6 17.6 16.8 5.9 10.8 5.7 23.8 5.2 36.1-0.2 6.2-0.4 12.6-3.2 18.2-3.1 6.4-9 10.8-15.1 14.4q-1.4 0.9-2.9 1.7-1.5 0.7-3 1.4-1.6 0.7-3.2 1.2-1.6 0.6-3.2 1c-6.7 1.5-13.7 0.2-20.5-1-7.4-1.4-15.3-3-20.4-8.5-3-3.2-4.6-7.3-6.2-11.3q-3.5-8.8-7-17.5c-4.1-10.1-5.4-18.5-0.1-28.4 2.4-4.5 5.4-8.7 7.8-13.2 1.2-2.3 5.5-15.2 7.4-15.7z"/><path class="i" d="m1035 574.2v29.9q-7.7 3.2-15.6 5.6-8 2.4-16.1 4-8.2 1.7-16.4 2.5-8.3 0.7-16.6 0.7h-269.7q-0.2 0.2-0.5 0.4l-3.2-0.4h-479.7c-40.3 0-77.6-10.8-108.2-29.3v-45.7l230.7-26.6h0.2l134.4 11.4 34.8 3 18 1.5 37.4 3.2 19.2 1.6 28 2.4 4 0.3 20.1 1.7 27.4 2.3 38.5 3.2 64.2 5.5 45.2 3.8 74.1 6.3 14.1 1.2 1.5 0.1 1.3 0.1 18.7 1.6 20.4 1.7 2.4 0.2z"/><path class="j" d="m764 573.1l-14.7 6.2-112.3 22.1-40.8-5.1-132.6-15.8 11.3-56.7z"/><path class="j" d="m614.3 598.6l144.9-27.2q1.1-0.2 2.2 0 1.1 0.3 1.9 1 0.9 0.8 1.4 1.8 0.4 1 0.4 2.1 0 0.9-0.3 1.7-0.3 0.8-0.8 1.5-0.6 0.7-1.3 1.1-0.8 0.5-1.7 0.6l-141.4 26.5z"/><path class="g" d="m677.2 513c4.5-0.5 9-1.2 13.1-3.2 5-2.5 8.9-6.7 13.5-9.9 10.2-7 23.8-7.9 35.5-3.9 11.7 4 21.4 12.6 28.2 22.9 4.6 6.8 8 15.6 4.8 23.1q-0.5 0.9-0.9 1.7-0.5 0.9-1 1.7-0.5 0.8-1.1 1.6-0.5 0.7-1.2 1.5l-8.3 10.9q-0.6 0.8-1.2 1.7-0.7 0.8-1.4 1.5-0.7 0.8-1.5 1.5-0.7 0.7-1.6 1.4c-3.1 2.2-7 3.2-10.8 3.7-10.1 1.5-20.5 0.7-30.7 1.3-17.6 1.2-34.7 6.9-52.3 6.7-10.2-0.1-20.1-2.2-30-4.2l-43.8-9c-7.6-1.6-16.2-3.8-19.8-10.8-1.6-3.1-1.9-6.7-2.1-10.2-0.5-9.6 0-20.3 6.7-27.3 6.2-6.5 16.2-8.6 23.7-13.4 9.1-5.9 12.2-4 21.9 0.5q7 3.2 14.4 5.4 7.4 2.3 15.1 3.6 7.6 1.3 15.3 1.6 7.8 0.3 15.5-0.4z"/><path class="k" d="m677.2 513c4.5-0.5 9-1.2 13.1-3.2 5-2.5 8.9-6.7 13.5-9.9 10.2-7 23.8-7.9 35.5-3.9 11.7 4 21.4 12.6 28.2 22.9 4.6 6.8 8 15.6 4.8 23.1q-0.5 0.9-0.9 1.7-0.5 0.9-1 1.7-0.5 0.8-1.1 1.6-0.5 0.7-1.2 1.5l-8.3 10.9q-0.6 0.8-1.2 1.7-0.7 0.8-1.4 1.5-0.7 0.8-1.5 1.5-0.7 0.7-1.6 1.4c-3.1 2.2-7 3.2-10.8 3.7-10.1 1.5-20.5 0.7-30.7 1.3-17.6 1.2-34.7 6.9-52.3 6.7-10.2-0.1-20.1-2.2-30-4.2l-43.8-9c-7.6-1.6-16.2-3.8-19.8-10.8-1.6-3.1-1.9-6.7-2.1-10.2-0.5-9.6 0-20.3 6.7-27.3 6.2-6.5 16.2-8.6 23.7-13.4 9.1-5.9 12.2-4 21.9 0.5q7 3.2 14.4 5.4 7.4 2.3 15.1 3.6 7.6 1.3 15.3 1.6 7.8 0.3 15.5-0.4z"/><path class="g" d="m878 494.9c10.5 2.4 20.7 4.6 30.1 10 11.2 6.5 20.6 17.1 23 29.9 2.4 12.7-3.4 27.2-15.1 32.7-4.7 2.2-9.8 2.9-14.9 3.4-50.4 5.3-101.5-2.4-151.8 3.9-6.9 0.9-13.9 2.1-20.8 3.2-19.4 3.1-38.7 5.8-58.1 8.6-13.1 1.8-26.3 3.7-39.4 2.5q-3.7-0.3-7.3-0.9-3.6-0.7-7.2-1.6-3.6-1-7.1-2.2-3.4-1.3-6.8-2.8-3-1.3-5.1-3.9c-1.4-1.6-2.4-3.6-3-5.7-0.6-2.1-0.6-4.3-0.3-6.4 0.4-2.1 1.3-4.1 2.5-5.9 5.9-8.2 12.3-15.9 20.2-22 23-18 55.3-20.3 83.7-13.3 5 1.2 10 2.8 15.2 3.2 11.6 1 22.8-3.7 34.1-6.6 21.4-5.4 44-4.6 65.6-9.4 12.8-2.8 25.2-7.6 37.4-12.3 9.4-3.6 15.4-6.6 25.1-4.4z"/><path class="l" d="m960.7 423.1c5.5 7.3 6.7 17 6.1 26.1-0.6 9.1-2.8 18.1-3.1 27.2-0.4 12.5 2.6 25 2.1 37.5-0.4 8.7-2.5 17.3-4.9 25.7-2.9 9.8-7.1 20.5-16.2 25.2-12.1 6.3-37.5 2.8-50.3 7.7 1.2-7.2 12.3-17.7 13.4-24.9 0.8-5 1.7-10.1 0.8-15.2-1.1-6.3-4.9-12-9.3-16.7-7.1-7.5-16.3-13.2-26.5-15-10.1-1.9-35-0.4-43.1 6-1-6.6 17.6-13 24.1-14.4 3.3-0.7 7-0.3 9.7-2.4 5-3.9 1.3-11.7 1.6-18 0.2-5 3.1-9.6 3.7-14.6 1-8-4.2-16.1-2.2-24 0.8-2.9 2.5-5.4 3.6-8.2 3.6-8.4 2-18.1 0.1-27-1.2-5.7-2.3-12 0.8-16.8 2.9-4.5 11.2 11.5 16.5 10.7 17.5-2.4 33.3-15.4 47.4-4.8 7.2 5.4 8.1 11 11 18.7 2.8 7.4 10 11.1 14.7 17.2z"/><path class="h" d="m963.7 423.1c5.5 7.3 6.7 17 6.1 26.1-0.6 9.1-2.8 18.1-3.1 27.2-0.4 12.5 2.6 25 2.1 37.5-0.4 8.7-2.5 17.3-4.9 25.7-2.9 9.8-7.1 20.5-16.2 25.2-12.1 6.3-37.5 2.8-50.3 7.7 1.2-7.2 12.3-17.7 13.4-24.9 0.8-5 1.7-10.1 0.8-15.2-1.1-6.3-4.9-12-9.3-16.7-7.1-7.5-16.3-13.2-26.5-15-10.1-1.9-35-0.4-43.1 6-1-6.6 17.6-13 24.1-14.4 3.3-0.7 7-0.3 9.7-2.4 5-3.9 1.3-11.7 1.6-18 0.2-5 3.1-9.6 3.7-14.6 1-8-4.2-16.1-2.2-24 0.8-2.9 2.5-5.4 3.6-8.2 3.6-8.4 2-18.1 0.1-27-1.2-5.7-2.3-12 0.8-16.8 2.9-4.5 8.6-6.2 13.9-7q6.6-0.9 13.2-0.5 6.7 0.4 13.1 2.1 6.4 1.6 12.4 4.5 6 2.8 11.3 6.8c7.2 5.4 8.2 11 11 18.7 2.8 7.4 10 11.1 14.7 17.2z"/><path class="j" d="m301.8 370.3q0.4-2.9 2.1-5.1c1-1.5 2.4-2.8 4-3.7 1.6-0.9 3.4-1.4 5.2-1.6l239.6-17.9c1.5-0.1 3 0 4.4 0.4 1.4 0.5 2.7 1.1 3.9 2 1.2 0.8 2.2 1.9 3.1 3.1 0.8 1.2 1.4 2.6 1.7 4l59.6 242.4c0.5 1.9 0.5 4 0 5.9-0.5 2-1.4 3.8-2.7 5.3-1.3 1.5-3 2.7-4.8 3.4-1.9 0.8-3.9 1.1-5.9 0.9l-244.7-23.5q-1.9-0.2-3.7-1-1.7-0.7-3.2-1.9-1.5-1.3-2.5-2.9-1-1.6-1.5-3.4l-54.4-201c-0.5-1.8-0.6-3.6-0.2-5.4z"/><path class="m" d="m787.1 414.9c-14.9 0-26.9-12.2-26.9-27.2 0-15.1 12-27.3 26.9-27.3 14.9 0 26.9 12.2 26.9 27.3 0 15-12 27.2-26.9 27.2z"/><path class="m" d="m818 344.1c1.4 8.3-11.5 31.9-11.5 31.9l-10.5-10.3 2.1-3.8c16.8-7.1 11.1-23.9 11.1-23.9 6.8-2.4 8.8 6.1 8.8 6.1z"/><path class="c" d="m790.2 414.9c-14.3 0-25.9-11.6-25.9-25.9 0-14.4 11.6-25.9 25.9-25.9 14.3 0 25.9 11.5 25.9 25.9 0 14.3-11.6 25.9-25.9 25.9z"/><path class="c" d="m818.1 347.9l-4.1-6.8-6-0.9c1.3-22.3-4.5-29-4.5-29l-1.4-0.2-5.9-0.5-11-11.5v-3.3c15.5 1.9 24.1 9.3 28.8 17.9 8.2 15.2 4.1 34.3 4.1 34.3z"/><path class="n" d="m802.2 306.9v4.1l-5.9-0.5-11.1-11.5c0 0 17.1 3.8 17 7.9z"/><path class="n" d="m818.1 347.9l-4.1-6.8v-27.4c8.2 15.1 4.1 34.2 4.1 34.2z"/><path class="m" d="m742.3 399.7c-6.9 3.9-18.4-3-25.7-15.6-7.3-12.6-7.6-26-0.7-30 7-4 18.4 2.9 25.7 15.5 7.3 12.6 7.6 26.1 0.7 30.1z"/><path class="c" d="m733 374.7c7.3 12.6 16.2 21 9.3 25-6.9 4-27 2-34.3-10.6-7.3-12.6-0.6-30 6.2-34 6.9-4 11.5 6.9 18.8 19.6z"/><path class="l" d="m797.7 284c0 40.2-27.5 79-67.7 79-19.4 0-37.9-7.7-51.5-21.4-13.7-13.6-21.4-32.2-21.4-51.5 0-19.3 7.7-37.8 21.4-51.5 13.6-13.7 32.1-21.3 51.5-21.3 40.2 0 67.7 26.4 67.7 66.7z"/><path class="g" d="m730 361c-40.3 0-72.9-32.6-72.9-72.9 0-40.2 32.6-72.8 72.9-72.8 40.3 0 72.8 32.6 72.8 72.8 0 40.3-32.5 72.9-72.8 72.9z"/><path class="o" d="m677.4 287.3q-0.4 0.6-0.9 1.1-0.5 0.5-1 1-0.5 0.5-1.1 1-0.5 0.4-1.1 0.8-0.9 0.5-1.8 0.8-1 0.3-2 0.5-1 0.2-2 0.3-1 0.1-2 0c-17.4-0.3-33.8-13.4-38-30.4q-0.3-1.2-0.5-2.5-0.2-1.2-0.3-2.5-0.1-1.3 0-2.5 0-1.3 0.2-2.6c1.8-11 12.5-18 18.1-27.7 8.5-14.6 5.2-35.6 18.2-46.4 10.8-8.9 26.8-5.6 40.8-6.2q3.9-0.1 7.8-0.7 3.8-0.6 7.6-1.6 3.8-1 7.4-2.5 3.6-1.4 7.1-3.3c2.1-1.1 4.3-2.4 6.7-2.8q0.6-0.1 1.3-0.1 0.7-0.1 1.3 0 0.7 0 1.3 0.1 0.7 0 1.4 0.2 3.6 0.5 7.3 1.2 3.7 0.7 7.3 1.6 3.6 0.9 7.2 1.9 3.5 1.1 7 2.4c5.2 1.8 10.2 4 14.6 7.3 5.4 4.2 9.4 10.1 12.7 16.1 12.9 23.5 16.7 52.3 8.2 77.7-0.5 1.5-1.2 3.1-2.7 3.6q-0.4 0-0.9 0-0.4 0-0.8 0-0.4-0.1-0.8-0.2-0.4-0.1-0.8-0.3c-6.8-2.1-14.2 0.2-21.2 2.1-12.5 3.5-26.8 5.3-37.8-1.7-7.8-5-13-13.9-21.6-17.1-21.7-8-34.8 17.8-46.2 31.4z"/><path class="l" d="m812 256q0.8-3 1.3-6.2 0.6-3.1 0.9-6.3 0.4-3.1 0.5-6.3 0.2 4.1 0 8.2-0.2 4.1-0.8 8.1-0.6 4.1-1.5 8.1-0.9 4-2.2 7.9c-0.5 1.5-1.2 3.1-2.7 3.5q-0.4 0.1-0.9 0.1-0.4 0-0.8-0.1-0.4 0-0.8-0.1-0.4-0.2-0.8-0.3c-6.9-2.1-14.2 0.2-21.2 2.1-12.5 3.5-26.8 5.3-37.8-1.7-7.8-5-13-14-21.6-17.2-21.7-7.9-34.8 17.9-46.2 31.5q-0.5 0.5-0.9 1.1-0.5 0.5-1 1-0.5 0.5-1.1 0.9-0.5 0.5-1.1 0.9-0.9 0.4-1.9 0.8-0.9 0.3-1.9 0.5-1 0.2-2 0.3-1 0-2-0.1c-17.5-0.3-33.9-13.4-38-30.3q-0.3-1.2-0.5-2.5-0.2-1.3-0.3-2.5-0.1-1.3 0-2.6 0-1.2 0.2-2.5 0-0.1 0-0.3 0.3 1.6 0.6 3c4.2 17 20.6 30.1 38 30.4q1 0.1 2 0 1 0 2-0.2 1-0.2 1.9-0.6 1-0.3 1.9-0.8 0.6-0.4 1.1-0.8 0.6-0.5 1.1-0.9 0.5-0.5 1-1.1 0.4-0.5 0.9-1.1c11.4-13.5 24.5-39.4 46.2-31.4 8.6 3.1 13.8 12.1 21.6 17.1 10.9 7.1 25.3 5.2 37.8 1.8 7-1.9 14.4-4.3 21.2-2.1q0.4 0.1 0.8 0.2 0.4 0.1 0.8 0.2 0.4 0.1 0.8 0.1 0.5 0 0.9-0.1c1.5-0.4 2.2-2.1 2.7-3.6q1-3 1.8-6.1z"/></svg>